# xmcd
#
# Track frame offsets:
#	150
#	12573
#	23696
#	35247
#	46745
#	57353
#	69971
#	81741
#	92564
#	105370
#	114246
#	127228
#	137372
#	149190
#	161030
#	173455
#	184197
#	194749
#	205608
#	218572
#	231379
#	244791
#
# Disc length: 3392 seconds
#
# Revision: 1
# Processed by: cddbd v1.5.2PL0 Copyright (c) Steve Scherf et al.
# Submitted via: audiograbber 1.83.01
#
DISCID=3d0d3e16
DTITLE=Various Artist - Stompin' 32: Early Jumpin' Southern Scorchers
DYEAR=1900
DGENRE=Rock
TTITLE0=L. C. Williams - Shout Baby Shout
TTITLE1=Robert Smith - Freeway Boogie
TTITLE2=Peppermint Harris - Fat Girl Boogie
TTITLE3=Carl Campbell - Ooh Wee Baby
TTITLE4=Hubert Robinson - Old Woman Boogie
TTITLE5=Zuzu Bollin - Why Don't You Eat Where You Slept Last Night
TTITLE6=Bernie Hardison - Love Me Baby
TTITLE7=Bill Johnson - Bill's Boogie
TTITLE8=Clarence Samuels - Low Top Inn
TTITLE9=Conney's Combo - Shout It Out
TTITLE10=Lonnie Lyons - Down In The Groovy
TTITLE11=Lost John Hunter - Cool Down Mama
TTITLE12=Joe Houston - Way Cross Mama
TTITLE13=Willie Johnson - Sampson Street Boogie
TTITLE14=Big Charley Bradix - Boogie Like You Wanna
TTITLE15=Goree Carter - I'm Your Boogie Man
TTITLE16=Willie Johnson - Got The Boogie Woogie Blues
TTITLE17=Tucker Coles Orchestra - House Rockers Jamboree
TTITLE18=Conney's Combo - Ugly Mae
TTITLE19=Tucker Coles Orchestra - Don't Get Excited
TTITLE20=Julian Dash - Preachin'
TTITLE21=Hubert Robinson - Hard Lovin' Daddy
EXTD=
EXTT0=
EXTT1=
EXTT2=
EXTT3=
EXTT4=
EXTT5=
EXTT6=
EXTT7=
EXTT8=
EXTT9=
EXTT10=
EXTT11=
EXTT12=
EXTT13=
EXTT14=
EXTT15=
EXTT16=
EXTT17=
EXTT18=
EXTT19=
EXTT20=
EXTT21=
PLAYORDER=
